<svg xmlns="http://www.w3.org/2000/svg" viewBox="0 0 378.76 384"><defs><style>.cls-1{fill:#e2a321;}</style></defs><g id="Layer_2" data-name="Layer 2"><g id="Layer_1-2" data-name="Layer 1"><path class="cls-1" d="M344.41,81.68l31.72-32a6.17,6.17,0,0,0-4.38-10.52H341V8.12a6.17,6.17,0,0,0-10.56-4.34L299,35.43A187.49,187.49,0,0,0,55.44,56.27a193.87,193.87,0,0,0,0,271.46,187.54,187.54,0,0,0,267.88,0,194.07,194.07,0,0,0,21.09-246Zm-47-27.05,31.25-31.51V45.28a6.2,6.2,0,0,0,1.78,4.34l.08.08a6.18,6.18,0,0,0,4.39,1.83h22L325.58,83.14H297.4Zm-108,317c-97.61,0-177-80.59-177-179.65s79.42-179.65,177-179.65A174.2,174.2,0,0,1,290.15,44.4l-3.31,3.33a6.21,6.21,0,0,0-1.79,4.35V80.9a144.17,144.17,0,0,0-95.67-36.42C109.14,44.48,43.86,110.66,43.86,192s65.28,147.52,145.52,147.52a144.22,144.22,0,0,0,95.91-36.58,148,148,0,0,0,48.2-90.3A6.18,6.18,0,0,0,321.25,211c-9.15,66.25-65.84,116.21-131.87,116.21C116,327.16,56.21,266.53,56.21,192S116,56.84,189.38,56.84a132,132,0,0,1,90,35.61L256,116.09a99.14,99.14,0,0,0-66.59-25.71C134.09,90.38,89.11,136,89.11,192s45,101.62,100.27,101.62S289.65,248,289.65,192a102,102,0,0,0-25-67.09l23.45-23.64a135.23,135.23,0,0,1,33.45,73.82,6.18,6.18,0,1,0,12.26-1.5,147.54,147.54,0,0,0-34.37-78.11h28.74a6.17,6.17,0,0,0,4.39-1.82l2.94-3A180.41,180.41,0,0,1,366.41,192c0,99.06-79.42,179.65-177,179.65ZM185,196.39a6.17,6.17,0,0,0,8.73,0l24.83-25A36.32,36.32,0,0,1,225,192c0,20-16,36.22-35.62,36.22S153.76,212,153.76,192s16-36.21,35.62-36.21A35.06,35.06,0,0,1,210,162.47l-25,25.18a6.18,6.18,0,0,0,0,8.74Zm33.71-42.76a47.38,47.38,0,0,0-29.36-10.2c-26.45,0-48,21.79-48,48.57s21.52,48.57,48,48.57,48-21.79,48-48.57a48.73,48.73,0,0,0-9.95-29.57l28.5-28.73A89.64,89.64,0,0,1,277.3,192c0,49.22-39.44,89.27-87.92,89.27s-87.92-40-87.92-89.27,39.44-89.27,87.92-89.27a86.84,86.84,0,0,1,57.89,22.14Z"/></g></g></svg>