<svg xmlns="http://www.w3.org/2000/svg" viewBox="0 0 384 307.3"><defs><style>.cls-1{fill:#e2a321;}</style></defs><g id="Layer_2" data-name="Layer 2"><g id="Layer_1-2" data-name="Layer 1"><path class="cls-1" d="M377.74,183.79a6.26,6.26,0,0,0,6.26-6.26V54a6.26,6.26,0,0,0-6.26-6.26h-59V6.26A6.26,6.26,0,0,0,312.46,0H94.68a6.26,6.26,0,0,0,0,12.52H306.2v181.3H108.84a6.27,6.27,0,0,0-4.27,1.68L58.11,238.88V199.3A6.26,6.26,0,0,0,51.85,193H12.52V12.52H54A6.26,6.26,0,0,0,54,0H6.26A6.26,6.26,0,0,0,0,6.26v193a6.26,6.26,0,0,0,6.26,6.26H45.59V253.3a6.25,6.25,0,0,0,10.53,4.57l55.19-51.53h4.83v41.48a6.27,6.27,0,0,0,6.26,6.27H272.69l55.18,51.53a6.3,6.3,0,0,0,4.28,1.68,6.38,6.38,0,0,0,2.49-.51,6.27,6.27,0,0,0,3.77-5.75V253.3h39.33A6.26,6.26,0,0,0,384,247V218.11a6.26,6.26,0,0,0-12.52,0v22.68H332.15a6.25,6.25,0,0,0-6.26,6.25v39.59l-46.46-43.38a6.24,6.24,0,0,0-4.27-1.69H128.66V206.34h183.8a6.26,6.26,0,0,0,6.26-6.26V60.27h52.76V177.52a6.27,6.27,0,0,0,6.26,6.27Z"/><path class="cls-1" d="M87.31,84.29A21.65,21.65,0,1,0,109,105.94,21.67,21.67,0,0,0,87.31,84.29Zm0,30.78a9.13,9.13,0,1,1,9.12-9.13,9.15,9.15,0,0,1-9.12,9.13Z"/><path class="cls-1" d="M158.67,84.29a21.65,21.65,0,1,0,21.64,21.65,21.67,21.67,0,0,0-21.64-21.65Zm0,30.78a9.13,9.13,0,1,1,9.12-9.13,9.14,9.14,0,0,1-9.12,9.13Z"/><path class="cls-1" d="M230,84.29a21.65,21.65,0,1,0,21.65,21.65A21.68,21.68,0,0,0,230,84.29Zm0,30.78a9.13,9.13,0,1,1,9.13-9.13,9.14,9.14,0,0,1-9.13,9.13Z"/></g></g></svg>