<svg xmlns="http://www.w3.org/2000/svg" viewBox="0 0 383.98 384"><defs><style>.cls-1{fill:#e2a321;}</style></defs><g id="Layer_2" data-name="Layer 2"><g id="Layer_1-2" data-name="Layer 1"><path class="cls-1" d="M383.92,22.53A23,23,0,0,0,361.45.06a220,220,0,0,0-51.16,5l-.05,0c-49.4,10.43-100.77,37.49-144.86,81.4a316.43,316.43,0,0,0-60,82.8,42.6,42.6,0,0,0-10-7.95,39.41,39.41,0,0,0-47.07,6.46L7.66,208.38A26.19,26.19,0,0,0,26.19,253.1H80a205.57,205.57,0,0,0-1.29,30.1,22.91,22.91,0,0,0,22.12,22.12q3.12.1,6.25.11a210,210,0,0,0,23.85-1.4v53.78a26.19,26.19,0,0,0,44.72,18.51l40.63-40.62a39.42,39.42,0,0,0,6.45-47.09,43.16,43.16,0,0,0-8-10,316,316,0,0,0,82.8-60A326.88,326.88,0,0,0,326,186.05a6.26,6.26,0,0,0-10-7.59,316.42,316.42,0,0,1-27.33,31.31c-53.82,54-123.92,85.08-187.48,83a10.37,10.37,0,0,1-10-10c-2-63.57,29-133.65,83.05-187.47C215.58,54.13,263.4,28.49,309.6,18L366,74.39a261.75,261.75,0,0,1-28.19,71.21,6.26,6.26,0,0,0,10.88,6.21C363.74,125.4,373.72,98.5,379,73.7a219.36,219.36,0,0,0,5-51.17ZM143.4,302.23a255.78,255.78,0,0,0,59.25-18c4.9,4.9,6.91,6.61,9.13,10.51a26.85,26.85,0,0,1-4.41,32.07l-40.62,40.63a13.67,13.67,0,0,1-23.35-9.67ZM81.74,240.59H26.18a13.69,13.69,0,0,1-9.67-23.36l40.63-40.62a26.87,26.87,0,0,1,32.06-4.42c3.92,2.23,5.6,4.22,10.52,9.15a256.11,256.11,0,0,0-18,59.25ZM371.18,37.45a207.46,207.46,0,0,1-2.33,22.1L330,20.74l-5.61-5.6L325,15a207.47,207.47,0,0,1,23.86-2.36c6.75-.26,16.28-2,20.7,4.48,3.56,5.21,1.93,14.32,1.61,20.29Z"/><path class="cls-1" d="M303.68,80.3a40.59,40.59,0,0,0-61.48,52.63l-79.56,79.56a6.26,6.26,0,0,0,8.86,8.86l79.56-79.57A40.58,40.58,0,0,0,303.68,80.3Zm-8.85,48.54a28.1,28.1,0,0,1-39.68,0h0a28.06,28.06,0,1,1,39.69,0Z"/></g></g></svg>